<?xml version="1.0" standalone="no"?>
<!DOCTYPE svg PUBLIC "-//W3C//DTD SVG 20010904//EN"
 "http://www.w3.org/TR/2001/REC-SVG-20010904/DTD/svg10.dtd">
<svg version="1.0" xmlns="http://www.w3.org/2000/svg"
 width="2807.000000pt" height="2807.000000pt" viewBox="0 0 2807.000000 2807.000000"
 preserveAspectRatio="xMidYMid meet">
<metadata>
Created by potrace 1.14, written by Peter Selinger 2001-2017
</metadata>
<g transform="translate(0.000000,2807.000000) scale(0.100000,-0.100000)"
fill="#000000" stroke="none">
<path d="M13961 26206 c-41 -72 -103 -179 -138 -238 -35 -59 -62 -110 -61
-112 2 -2 -4 -12 -13 -22 -14 -17 -27 -38 -86 -144 -11 -19 -163 -282 -338
-585 -175 -302 -379 -656 -453 -785 -74 -129 -138 -239 -142 -245 -4 -5 -19
-31 -33 -57 -14 -26 -67 -118 -118 -205 -133 -231 -223 -386 -333 -578 -54
-93 -112 -192 -128 -220 -16 -27 -122 -212 -236 -410 l-208 -360 -180 -46
c-99 -25 -214 -56 -255 -69 -41 -12 -83 -24 -94 -26 -46 -9 -446 -142 -630
-209 -207 -76 -501 -196 -638 -259 -43 -20 -81 -36 -84 -36 -3 0 -119 -56
-257 -124 -259 -128 -501 -259 -736 -400 -74 -44 -143 -85 -153 -91 -82 -47
-435 -283 -552 -369 -121 -88 -363 -270 -410 -309 -33 -27 -67 -54 -75 -60
-73 -56 -388 -327 -484 -417 -246 -229 -479 -464 -672 -675 -629 -693 -1177
-1498 -1596 -2345 -69 -141 -90 -185 -163 -345 -112 -246 -299 -725 -365 -935
-4 -14 -27 -83 -50 -155 -92 -286 -226 -795 -264 -1008 -2 -15 -7 -35 -10 -45
-3 -9 -7 -35 -11 -57 -3 -22 -8 -47 -10 -55 -4 -15 -63 -360 -70 -413 -2 -15
-6 -44 -9 -65 -3 -20 -8 -59 -11 -87 -3 -27 -8 -61 -10 -75 -3 -14 -7 -43 -9
-65 -27 -243 -26 -232 -42 -420 -32 -393 -38 -1180 -10 -1485 2 -19 7 -76 10
-127 4 -50 9 -102 11 -115 2 -13 6 -63 10 -113 4 -49 9 -99 10 -110 2 -11 6
-47 10 -80 4 -32 8 -66 10 -75 1 -8 6 -42 10 -75 4 -32 9 -68 11 -80 2 -11 6
-40 9 -65 3 -25 10 -70 15 -100 5 -30 12 -73 15 -95 4 -22 13 -72 21 -112 7
-39 17 -89 20 -110 5 -29 74 -355 99 -463 16 -70 73 -286 104 -396 l39 -136
-90 -156 c-50 -87 -134 -231 -186 -322 -52 -91 -106 -182 -119 -202 -12 -21
-23 -40 -23 -42 0 -2 -26 -48 -58 -103 -32 -54 -70 -118 -84 -143 -26 -47
-385 -669 -513 -890 -73 -125 -465 -804 -502 -870 -88 -154 -471 -817 -499
-862 -19 -31 -34 -59 -34 -63 0 -4 -8 -19 -19 -33 -10 -15 -30 -47 -43 -72
-26 -45 -185 -320 -373 -645 -54 -93 -108 -188 -120 -210 -12 -22 -42 -74 -67
-115 -42 -70 -67 -114 -115 -200 -11 -19 -46 -80 -78 -135 -119 -205 -348
-602 -373 -645 -14 -25 -56 -99 -95 -165 -38 -66 -79 -136 -90 -155 -10 -19
-40 -71 -66 -115 -25 -44 -50 -88 -56 -97 -5 -10 -38 -66 -72 -125 -34 -59
-170 -295 -302 -523 -132 -228 -238 -417 -236 -420 4 -7 28043 -6 28050 2 3 3
-17 42 -45 87 -27 46 -50 84 -50 85 0 2 -36 65 -285 496 -43 74 -100 172 -126
218 -27 45 -49 87 -49 92 0 6 -4 10 -10 10 -5 0 -10 4 -10 9 0 7 -438 774
-480 841 -13 21 -98 167 -128 220 -42 76 -201 350 -253 438 -27 45 -49 84 -49
87 0 2 -25 45 -55 95 -30 50 -55 92 -55 94 0 2 -18 34 -40 70 -22 36 -40 70
-40 76 0 5 -4 10 -10 10 -5 0 -10 4 -10 9 0 5 -66 123 -146 263 -189 326 -511
883 -536 926 -10 19 -169 293 -352 610 -183 318 -364 631 -402 697 -38 66 -73
127 -79 137 -5 9 -26 45 -46 80 -54 94 -65 113 -204 353 -70 121 -137 236
-147 255 -11 19 -42 72 -69 118 -27 45 -49 85 -49 88 0 3 -8 18 -19 32 -10 15
-32 52 -49 82 -16 30 -85 150 -152 265 -67 116 -132 227 -143 249 -12 21 -27
46 -32 55 -6 9 -27 46 -48 83 l-38 67 35 123 c52 184 101 377 136 533 17 77
38 167 45 200 8 33 17 80 20 105 4 24 8 47 10 50 2 3 6 23 9 45 3 22 13 76 21
120 18 99 62 391 70 465 3 30 8 66 10 80 2 14 6 54 10 90 3 36 8 81 10 100 5
43 12 119 20 230 4 47 8 101 10 120 23 238 23 1229 0 1352 -2 11 -7 71 -10
135 -4 64 -8 125 -10 134 -2 10 -6 49 -10 86 -3 37 -8 86 -11 108 -3 22 -7 56
-9 75 -8 70 -17 145 -20 160 -2 8 -6 42 -9 75 -4 33 -9 67 -11 75 -2 8 -6 33
-10 55 -6 45 -12 77 -25 155 -5 30 -12 72 -16 94 -3 21 -8 48 -10 60 -3 11 -7
32 -10 46 -2 14 -9 48 -14 75 -6 28 -12 61 -15 75 -3 14 -7 36 -10 50 -3 14
-7 34 -9 45 -3 11 -19 81 -36 155 -303 1299 -863 2534 -1643 3625 -55 77 -130
178 -166 225 -130 170 -205 265 -215 275 -6 6 -29 33 -51 60 -42 53 -45 57
-151 180 -68 79 -90 104 -209 234 -183 200 -469 484 -655 651 -52 47 -97 87
-100 90 -3 3 -41 36 -85 74 -44 38 -91 78 -105 90 -316 273 -807 628 -1235
893 -333 206 -829 469 -1165 617 -85 38 -174 77 -197 87 -23 11 -45 19 -48 19
-3 0 -30 11 -58 24 -272 124 -914 337 -1357 450 l-175 44 -153 264 c-83 145
-158 274 -166 288 -7 14 -53 93 -101 175 -48 83 -96 166 -107 185 -49 86 -411
711 -563 975 -92 160 -175 304 -185 320 -66 116 -656 1137 -679 1175 -11 19
-24 42 -28 50 -4 8 -16 31 -29 50 -12 19 -95 162 -184 318 -89 155 -165 284
-168 286 -4 2 -41 -55 -81 -128z m237 -1136 c69 -118 136 -235 150 -260 14
-25 106 -184 205 -355 197 -340 207 -358 238 -412 12 -21 45 -78 74 -128 29
-49 63 -110 77 -135 14 -25 58 -101 98 -170 153 -261 210 -362 210 -371 0 -5
5 -9 10 -9 6 0 10 -4 10 -10 0 -5 27 -55 60 -111 33 -55 60 -103 60 -105 0 -2
18 -33 40 -68 21 -36 51 -86 65 -113 14 -26 34 -61 44 -78 10 -16 52 -88 93
-160 42 -71 86 -147 98 -169 l23 -38 -44 7 c-24 4 -53 9 -64 11 -11 1 -47 7
-80 13 -33 5 -85 13 -115 16 -30 3 -66 8 -80 10 -14 3 -47 7 -75 10 -27 3 -66
7 -85 9 -49 6 -156 17 -199 21 -20 2 -72 6 -116 10 -44 3 -98 8 -121 10 -298
27 -1142 27 -1459 0 -27 -3 -81 -7 -120 -10 -113 -9 -177 -15 -225 -20 -25 -3
-63 -7 -85 -10 -22 -2 -58 -6 -80 -9 -22 -3 -65 -8 -95 -11 -30 -3 -80 -10
-110 -15 -30 -5 -75 -12 -100 -15 -25 -4 -67 -11 -94 -16 -79 -15 -80 -14 -52
34 13 23 33 56 43 74 33 58 368 637 378 655 6 9 17 29 26 45 8 15 100 174 204
353 103 179 239 414 301 522 63 108 123 212 133 230 11 18 49 85 85 148 37 63
78 135 92 160 15 25 110 189 211 365 102 176 192 331 200 344 l16 24 15 -29
c8 -16 71 -126 140 -244z m-460 -4975 l-3 -1919 -40 -2 c-117 -5 -308 -16
-325 -19 -11 -2 -56 -7 -99 -10 -44 -3 -89 -8 -100 -10 -11 -2 -50 -6 -87 -10
-71 -6 -297 -39 -380 -54 -27 -5 -67 -12 -89 -15 -23 -4 -50 -8 -60 -11 -75
-15 -274 -57 -295 -61 -14 -3 -50 -11 -80 -19 -30 -8 -66 -16 -80 -19 -272
-56 -910 -271 -1260 -426 -149 -65 -156 -69 -326 -150 -572 -275 -1211 -691
-1673 -1090 -36 -30 -62 -50 -59 -45 3 6 65 114 138 240 139 240 156 271 191
333 12 20 25 42 29 47 4 6 19 30 32 55 14 25 119 207 233 405 114 198 216 374
225 390 10 17 67 116 127 220 61 105 163 282 228 395 65 113 158 275 208 360
112 194 258 446 502 870 62 107 152 263 200 345 48 83 139 241 203 352 65 112
132 229 150 260 19 32 48 83 64 113 17 30 39 67 49 82 11 14 19 28 19 31 0 2
37 67 81 143 45 77 91 157 103 179 12 22 65 114 118 205 53 91 145 250 205
354 l110 190 57 13 c32 7 67 15 79 17 12 2 49 9 82 15 33 6 71 13 85 16 14 3
41 8 60 11 19 2 58 9 85 14 28 5 86 14 130 20 44 6 91 13 105 15 68 12 209 29
325 40 33 3 76 8 95 10 19 3 71 8 115 11 44 3 98 7 120 9 22 2 105 6 185 10
80 4 146 8 148 9 1 2 18 2 37 2 l35 -1 -2 -1920z m837 1910 c77 -4 156 -8 175
-9 19 -2 76 -6 125 -10 101 -8 110 -9 295 -30 19 -3 62 -7 95 -11 33 -4 71 -8
85 -11 14 -2 45 -6 70 -10 39 -5 265 -41 370 -59 105 -18 286 -57 292 -63 6
-6 95 -158 200 -342 11 -19 63 -109 116 -200 52 -91 103 -178 112 -195 33 -57
173 -301 260 -450 48 -82 98 -170 112 -195 14 -25 49 -85 78 -135 29 -49 64
-110 77 -134 14 -24 61 -104 104 -178 43 -75 79 -137 79 -139 0 -3 12 -23 26
-45 14 -23 36 -60 49 -82 13 -23 80 -141 150 -262 70 -121 139 -240 153 -265
13 -25 28 -49 32 -55 4 -5 19 -30 32 -55 31 -55 74 -130 161 -279 37 -62 67
-115 67 -116 0 -2 20 -37 44 -78 48 -81 186 -320 219 -377 10 -19 76 -134 146
-255 70 -121 190 -328 265 -460 76 -132 147 -252 157 -267 11 -15 19 -29 19
-32 0 -2 15 -30 33 -63 57 -98 478 -826 500 -863 19 -33 20 -34 1 -19 -27 23
-256 208 -274 222 -59 46 -214 161 -255 191 -63 44 -213 148 -233 161 -9 6
-54 35 -101 66 -87 56 -389 239 -395 239 -2 0 -33 16 -68 36 -105 61 -414 217
-569 287 -372 169 -798 324 -1179 428 -25 7 -49 14 -55 15 -5 2 -22 6 -37 9
-15 3 -39 10 -53 15 -14 5 -25 7 -25 5 0 -2 -12 0 -26 6 -24 9 -171 44 -234
55 -14 3 -41 9 -60 14 -77 19 -422 79 -552 96 -29 3 -84 10 -148 19 -19 3 -57
7 -85 10 -27 2 -81 7 -120 11 -38 3 -77 8 -85 9 -9 2 -79 6 -155 10 -130 7
-201 12 -216 14 -3 1 -6 863 -6 1916 0 1753 1 1914 16 1918 9 2 30 3 46 1 17
-1 93 -5 170 -9z m2385 -428 c136 -42 410 -137 565 -196 107 -41 128 -50 190
-77 17 -7 91 -38 165 -69 178 -75 167 -70 455 -211 356 -175 565 -290 855
-471 106 -67 391 -253 400 -263 3 -3 28 -20 55 -39 121 -83 526 -390 555 -421
3 -3 46 -39 95 -79 481 -398 1059 -994 1427 -1474 152 -198 316 -423 388 -533
19 -29 47 -70 61 -91 45 -65 132 -202 211 -333 96 -159 136 -230 241 -420 101
-184 276 -549 403 -843 125 -288 310 -815 395 -1127 29 -104 98 -371 103 -395
2 -11 9 -38 14 -60 6 -22 13 -51 16 -65 2 -14 12 -59 21 -100 9 -41 18 -84 20
-95 2 -11 8 -45 14 -75 6 -30 14 -68 17 -85 5 -31 21 -126 28 -160 2 -11 7
-42 10 -68 4 -27 9 -58 11 -69 3 -11 6 -39 9 -62 3 -22 10 -74 16 -114 5 -40
12 -94 15 -120 3 -26 7 -60 10 -77 2 -16 7 -61 10 -100 4 -38 8 -86 10 -105
28 -300 38 -526 38 -880 1 -261 -9 -634 -18 -680 -2 -10 -7 -65 -10 -122 -4
-57 -8 -116 -10 -133 -2 -16 -7 -57 -10 -90 -10 -100 -16 -159 -20 -185 -2
-14 -11 -79 -19 -145 -9 -66 -18 -131 -20 -145 -3 -14 -7 -41 -10 -60 -3 -19
-8 -46 -10 -60 -3 -14 -7 -41 -10 -60 -3 -19 -10 -60 -16 -90 -6 -30 -13 -67
-15 -82 -14 -75 -46 -232 -64 -308 -11 -47 -22 -97 -25 -110 -19 -90 -16 -91
-91 40 -39 67 -80 140 -93 163 -12 23 -47 82 -76 132 -30 49 -122 209 -206
355 -83 146 -194 337 -245 425 -51 88 -102 176 -112 195 -27 48 -337 585 -428
740 -40 69 -82 141 -92 160 -11 19 -50 86 -87 149 -36 62 -66 115 -66 117 0 1
-31 55 -70 120 -38 64 -70 118 -70 120 0 1 -39 69 -86 151 -47 81 -96 166
-109 188 -12 22 -61 108 -110 190 -85 146 -112 193 -152 265 -11 19 -161 278
-333 575 -172 297 -324 560 -338 585 -13 25 -39 70 -57 100 -18 30 -42 71 -52
90 -23 40 -176 306 -300 518 -46 79 -83 147 -83 152 0 6 -4 10 -10 10 -5 0
-10 4 -10 9 0 6 -56 106 -124 223 -204 353 -722 1251 -786 1363 -10 17 -49 84
-87 150 -39 66 -81 140 -95 165 -14 25 -64 112 -112 193 -47 82 -97 167 -110
190 -32 57 -605 1049 -671 1162 -29 50 -132 230 -230 400 -98 171 -186 322
-196 337 -11 15 -19 29 -19 32 0 3 -22 43 -49 88 -27 46 -58 99 -69 118 -10
19 -43 76 -72 125 -29 50 -62 108 -74 130 -13 22 -56 96 -96 165 -40 69 -83
144 -96 167 -13 23 -53 92 -89 153 -36 61 -65 113 -65 114 0 3 -89 156 -120
206 -8 14 -119 208 -146 255 -6 11 -50 87 -97 168 -48 82 -87 150 -87 152 0 2
19 -3 43 -10 23 -7 94 -29 157 -48z m-5709 -64 c-38 -65 -78 -134 -90 -153
-11 -19 -24 -42 -28 -50 -4 -8 -26 -46 -48 -85 -23 -38 -53 -90 -67 -115 -14
-25 -118 -205 -230 -400 -113 -195 -215 -371 -226 -390 -11 -19 -52 -91 -92
-160 -40 -69 -80 -138 -90 -155 -28 -50 -120 -209 -133 -230 -51 -86 -85 -146
-242 -420 -98 -170 -244 -422 -323 -560 -80 -137 -214 -371 -300 -520 -85
-148 -158 -274 -162 -280 -4 -5 -19 -30 -32 -55 -14 -25 -84 -147 -155 -270
-146 -251 -416 -718 -561 -970 -110 -192 -163 -282 -297 -515 -181 -312 -688
-1190 -699 -1210 -33 -58 -144 -251 -162 -283 -60 -103 -500 -863 -522 -902
-14 -25 -44 -76 -67 -115 -22 -38 -44 -77 -48 -85 -4 -8 -17 -31 -28 -50 -12
-19 -149 -255 -304 -525 -155 -269 -292 -506 -304 -525 -12 -19 -27 -46 -34
-60 -6 -14 -19 -36 -28 -50 -14 -21 -357 -615 -416 -720 -34 -59 -163 -284
-173 -300 -5 -8 -37 -64 -72 -124 -35 -60 -74 -127 -87 -150 -55 -95 -263
-455 -361 -626 -111 -192 -206 -356 -246 -425 -48 -81 -49 -82 -57 -30 -3 17
-17 84 -32 150 -15 66 -29 129 -31 140 -29 151 -45 235 -49 260 -2 17 -7 41
-10 55 -2 13 -7 42 -10 65 -3 22 -8 47 -10 55 -2 8 -7 40 -10 70 -4 30 -8 57
-10 60 -2 4 -13 81 -20 145 -1 11 -5 45 -9 75 -12 87 -14 110 -21 195 -3 44
-8 90 -10 101 -3 12 -7 64 -11 115 -3 52 -7 112 -9 134 -24 268 -24 1053 0
1315 2 25 7 83 10 129 6 83 8 106 20 226 9 83 22 199 40 335 6 45 21 142 29
190 3 14 7 41 10 60 6 38 34 202 41 235 19 97 28 140 59 280 29 131 58 249
100 415 95 370 326 1028 476 1356 16 35 36 79 44 99 64 151 263 551 376 750
279 495 582 944 925 1370 71 88 131 162 134 165 4 3 19 21 35 40 148 182 497
549 742 780 1061 1001 2350 1760 3729 2195 99 31 185 58 190 60 33 11 27 -7
-34 -112z m2489 -7314 l0 -3477 -72 3 c-136 7 -313 17 -348 20 -19 2 -75 6
-125 10 -49 3 -101 8 -115 10 -14 2 -54 6 -90 10 -36 4 -76 8 -90 10 -14 2
-47 7 -75 10 -109 12 -146 17 -295 41 -85 14 -166 27 -180 29 -50 9 -145 26
-165 30 -243 40 -773 177 -1115 286 -586 188 -1237 469 -1735 749 -153 86
-213 121 -315 183 -63 38 -131 79 -150 91 -129 76 -493 327 -675 465 -206 156
-544 434 -676 558 -24 23 -55 51 -69 63 -14 12 -63 58 -109 103 l-84 81 48 91
c71 135 192 352 233 421 20 33 50 83 66 110 41 67 175 268 259 389 128 181
299 398 478 606 118 137 430 457 574 589 95 87 203 182 262 230 94 77 130 107
142 118 80 75 561 413 756 532 276 168 654 368 890 469 55 24 118 52 140 61
22 10 94 39 160 65 66 25 136 53 155 60 313 125 990 306 1345 360 22 3 51 8
65 10 69 12 313 45 370 50 36 4 76 8 90 10 24 4 65 7 265 21 50 3 91 7 92 7 1
1 22 2 47 2 l46 1 0 -3477z m800 3466 c63 -3 129 -8 145 -9 17 -2 66 -6 110
-10 44 -4 91 -9 105 -11 14 -2 50 -7 80 -10 30 -3 82 -10 115 -15 33 -5 78
-12 100 -15 23 -3 50 -7 60 -9 11 -2 40 -7 65 -11 25 -4 54 -9 65 -11 11 -3
36 -7 55 -10 19 -3 42 -7 50 -9 8 -2 31 -7 50 -10 112 -19 400 -89 600 -146
205 -58 650 -214 784 -273 17 -8 96 -42 176 -77 435 -189 846 -421 1310 -740
99 -68 441 -331 486 -373 6 -6 24 -22 40 -35 29 -24 143 -124 218 -191 60 -53
393 -386 461 -461 470 -514 849 -1054 1160 -1655 l57 -111 -77 -74 c-43 -41
-87 -83 -99 -94 -96 -92 -403 -356 -510 -440 -21 -16 -44 -35 -50 -40 -28 -27
-276 -212 -416 -312 -1074 -765 -2354 -1325 -3625 -1587 -92 -19 -227 -45
-257 -50 -21 -3 -57 -10 -80 -15 -24 -6 -66 -13 -94 -16 -28 -3 -61 -8 -75
-10 -37 -8 -69 -13 -129 -20 -30 -4 -62 -9 -70 -10 -8 -2 -44 -6 -80 -10 -36
-3 -72 -8 -80 -10 -8 -2 -49 -7 -90 -10 -41 -4 -88 -9 -103 -11 -27 -3 -112
-10 -222 -19 -81 -6 -295 -17 -365 -19 l-65 -1 -2 3465 c-1 1906 0 3470 2
3476 2 6 20 10 42 8 21 -1 90 -5 153 -9z m-7432 -4739 c32 -30 68 -64 82 -76
14 -11 39 -33 55 -48 31 -29 259 -223 355 -303 290 -241 786 -588 1165 -816
297 -179 782 -436 1010 -535 33 -15 107 -48 165 -73 321 -144 835 -332 1190
-435 41 -12 102 -30 135 -40 123 -37 569 -145 725 -176 14 -2 48 -9 75 -14 28
-6 61 -13 75 -15 131 -26 412 -70 605 -94 161 -21 196 -25 315 -35 36 -4 90
-9 120 -11 30 -3 78 -7 105 -10 43 -4 185 -11 380 -20 28 -1 56 -3 63 -4 9 -1
12 -776 12 -3841 l0 -3840 -77 5 c-273 18 -427 30 -483 40 -8 2 -44 6 -80 10
-36 4 -72 9 -80 10 -8 1 -40 6 -70 10 -30 4 -64 9 -75 11 -11 2 -40 7 -65 10
-25 3 -54 8 -65 10 -11 2 -33 7 -50 10 -16 3 -61 11 -100 19 -38 8 -83 17
-100 19 -44 8 -109 23 -325 78 -535 135 -1005 310 -1509 562 -192 96 -214 108
-391 209 -141 80 -502 307 -520 327 -3 3 -27 20 -55 39 -55 38 -346 256 -385
288 -71 59 -331 282 -370 317 -85 77 -446 441 -521 526 -339 379 -568 687
-846 1136 -275 442 -536 1007 -716 1546 -48 144 -130 417 -142 474 -2 10 -19
83 -38 160 -20 78 -38 154 -41 170 -7 40 -15 80 -27 140 -5 28 -12 62 -14 77
-3 15 -9 53 -15 85 -5 31 -12 72 -15 90 -3 17 -7 44 -10 60 -2 15 -7 50 -10
77 -3 28 -8 61 -10 75 -2 14 -7 50 -10 80 -3 30 -8 71 -10 90 -9 71 -21 211
-32 395 -14 236 -7 807 12 1005 2 19 6 74 9 121 4 47 9 96 11 110 2 13 6 47
10 74 3 28 8 70 11 95 5 48 60 388 69 430 3 14 10 50 16 80 5 30 12 66 15 80
20 101 112 455 154 595 87 287 235 695 253 695 5 0 34 -24 65 -54z m13957 32
c3 -13 10 -32 15 -43 58 -124 200 -550 270 -803 40 -148 101 -406 125 -527 21
-110 36 -196 40 -225 4 -26 12 -76 20 -120 4 -23 7 -45 20 -150 3 -19 7 -61
10 -93 4 -32 8 -66 10 -76 2 -9 6 -57 10 -106 4 -49 9 -105 11 -125 32 -368
22 -1038 -22 -1398 -3 -26 -7 -60 -9 -77 -6 -60 -17 -150 -20 -167 -2 -9 -7
-38 -11 -65 -3 -26 -8 -57 -10 -68 -2 -11 -7 -40 -10 -65 -3 -25 -10 -65 -16
-90 -5 -25 -12 -61 -15 -80 -11 -78 -87 -402 -138 -588 -96 -351 -239 -751
-366 -1030 -16 -34 -29 -65 -29 -68 0 -13 -205 -421 -270 -539 -194 -349 -407
-672 -646 -980 -107 -138 -211 -267 -222 -275 -4 -3 -20 -21 -36 -40 -122
-151 -518 -552 -711 -720 -66 -58 -126 -111 -134 -118 -8 -8 -79 -66 -158
-129 -121 -96 -213 -165 -443 -330 -118 -85 -475 -304 -665 -408 -181 -99
-675 -335 -701 -335 -3 0 -20 -6 -37 -14 -50 -23 -145 -61 -227 -90 -41 -15
-84 -32 -95 -36 -120 -53 -755 -238 -880 -257 -16 -2 -43 -8 -60 -13 -32 -10
-274 -57 -334 -66 -20 -3 -58 -9 -86 -14 -27 -5 -75 -12 -105 -15 -30 -3 -62
-8 -70 -10 -8 -2 -44 -7 -80 -10 -36 -3 -72 -8 -80 -10 -8 -2 -46 -6 -85 -10
-38 -3 -86 -8 -105 -10 -33 -4 -159 -12 -311 -20 l-66 -3 0 3839 c0 2111 3
3839 6 3840 3 1 33 2 66 3 90 4 335 18 375 21 19 2 78 6 130 10 52 4 97 8 100
10 3 1 43 6 90 10 47 3 96 8 110 10 14 2 52 6 85 10 33 4 67 9 75 10 8 2 44 6
80 10 36 4 67 8 70 10 3 2 29 6 59 10 30 4 63 9 75 11 11 2 38 6 61 9 22 3 47
8 55 10 8 2 31 7 50 10 129 21 407 77 550 110 1176 276 2285 754 3299 1422
242 160 385 262 662 475 57 43 346 280 384 315 11 10 56 49 100 88 44 38 110
98 148 132 37 35 71 63 77 63 5 0 11 -10 15 -22z m-14981 -1501 c-13 -76 -26
-161 -29 -190 -3 -29 -8 -59 -10 -67 -2 -8 -7 -44 -10 -80 -3 -36 -8 -72 -10
-80 -4 -14 -6 -40 -20 -208 -3 -32 -7 -75 -10 -97 -25 -240 -25 -1058 1 -1255
2 -19 6 -64 9 -100 7 -94 18 -189 40 -360 10 -75 46 -302 56 -356 5 -28 12
-64 15 -80 4 -26 38 -185 50 -239 2 -11 7 -33 10 -49 2 -16 7 -32 9 -36 2 -3
6 -17 9 -31 70 -340 290 -997 457 -1365 17 -38 47 -105 67 -149 40 -88 181
-366 239 -473 138 -252 395 -663 515 -822 10 -14 63 -84 116 -155 98 -131 163
-216 172 -225 3 -3 25 -30 50 -60 272 -332 645 -713 975 -995 44 -37 92 -78
106 -90 324 -278 877 -653 1309 -887 112 -61 402 -205 495 -246 50 -22 119
-53 155 -69 36 -17 131 -56 213 -88 81 -32 147 -60 147 -64 0 -3 -2324 -6
-5165 -6 -2841 0 -5165 3 -5165 7 0 4 14 30 30 58 17 28 30 53 30 55 0 2 23
40 50 85 28 45 50 83 50 84 0 2 48 86 107 187 58 101 115 200 126 219 11 19
43 76 72 125 59 100 76 130 171 295 36 63 75 131 86 150 61 105 244 421 266
460 14 25 88 152 164 284 76 131 138 240 138 243 0 2 8 16 19 31 14 21 226
387 389 672 11 19 61 107 112 195 241 417 315 543 338 585 14 25 49 85 79 134
29 49 53 90 53 92 0 3 350 613 370 644 9 15 66 112 105 180 11 20 58 102 105
183 47 81 101 175 121 209 116 204 180 315 189 328 5 8 22 38 36 65 15 28 30
52 35 53 5 2 9 7 9 12 0 4 32 64 71 132 39 67 80 139 91 158 19 32 100 173
123 212 6 9 23 41 39 70 15 29 33 60 40 68 6 8 16 25 23 36 7 12 65 114 129
225 65 112 132 229 149 259 17 30 58 100 90 155 32 55 69 120 83 145 13 25 28
50 32 55 4 6 69 118 145 250 76 132 163 283 193 335 30 52 63 109 72 125 18
32 235 408 266 462 224 386 274 474 358 621 38 67 71 121 72 119 1 -1 -9 -64
-22 -140z m15942 56 c20 -38 90 -158 154 -268 64 -111 120 -207 124 -215 4 -8
12 -24 19 -35 7 -11 86 -148 176 -305 90 -157 172 -297 182 -312 11 -15 19
-29 19 -32 0 -2 53 -96 118 -208 65 -111 130 -223 144 -248 23 -40 72 -125
326 -565 105 -182 141 -244 167 -290 13 -22 62 -107 111 -190 48 -82 92 -159
98 -170 22 -38 141 -246 157 -273 9 -15 27 -47 41 -72 14 -25 97 -169 185
-320 250 -432 469 -811 493 -855 12 -22 34 -60 50 -85 15 -25 83 -142 150
-260 68 -118 136 -237 153 -265 16 -27 39 -66 50 -85 52 -93 661 -1146 667
-1155 4 -5 18 -30 32 -55 14 -25 94 -164 178 -310 84 -146 164 -285 178 -310
14 -25 36 -62 49 -82 12 -21 23 -40 23 -43 0 -2 15 -28 34 -57 18 -29 45 -75
60 -103 15 -27 37 -66 48 -85 23 -40 224 -387 430 -745 76 -132 143 -247 148
-255 5 -8 19 -31 29 -51 11 -19 77 -134 147 -255 70 -120 141 -244 157 -274
16 -30 35 -62 41 -70 17 -23 36 -59 36 -67 0 -5 -2326 -8 -5169 -8 -2844 0
-5167 3 -5163 6 4 3 75 32 157 64 83 32 177 70 210 85 33 15 85 38 115 51 81
34 450 218 560 279 194 107 212 118 385 225 225 138 509 337 730 509 50 39 92
73 95 76 3 3 57 48 120 101 385 320 782 726 1098 1122 53 67 99 124 102 127
18 15 240 328 340 479 389 586 696 1214 925 1896 24 72 48 146 53 165 6 19 24
82 41 140 49 164 50 168 81 295 30 125 65 278 74 330 3 17 8 41 11 55 3 14 8
36 10 50 2 14 7 37 10 53 9 45 14 78 30 177 22 133 23 137 31 210 4 36 8 67 9
70 1 3 5 41 9 85 5 44 10 88 12 98 1 9 6 54 9 100 4 45 8 98 11 117 23 208 23
999 0 1220 -3 19 -7 71 -11 115 -3 44 -8 98 -11 120 -2 22 -6 63 -9 90 -3 28
-8 61 -10 75 -2 14 -7 48 -10 75 -9 68 -10 78 -24 170 -18 116 -21 136 -30
178 -5 20 -7 37 -6 37 2 0 20 -30 41 -67z"/>
</g>
</svg>
